<svg width="89" height="40" viewBox="0 0 89 40" fill="none" xmlns="http://www.w3.org/2000/svg">
<path d="M50.272 35L50.2 21.644L43.72 32.516H40.552L34.108 22.004V35H27.52V9.8H33.388L42.244 24.344L50.884 9.8H56.752L56.824 35H50.272ZM82.0997 29.492V35H61.8677V9.8H81.6317V15.308H68.9237V19.556H80.1197V24.884H68.9237V29.492H82.0997Z" fill="white"/>
<path d="M22.6904 28.4017C22.6904 29.7437 22.2997 31.0052 21.5184 32.1862C20.7683 33.3672 19.6431 34.3603 18.143 35.1655C16.674 35.9707 14.9238 36.4538 12.8923 36.6149V39.876H9.84501V36.6149C6.90714 36.3733 4.53183 35.5815 2.7191 34.2395C0.906366 32.8975 0 31.126 0 28.9251H5.71948C5.81324 29.9719 6.20392 30.8442 6.89151 31.542C7.5791 32.213 8.5636 32.6425 9.84501 32.8304V23.973C7.75099 23.5167 6.04765 23.0605 4.73498 22.6042C3.42231 22.121 2.29717 21.3695 1.35955 20.3496C0.453183 19.3296 0 17.9339 0 16.1625C0 13.9347 0.906366 12.0961 2.7191 10.6468C4.53183 9.17054 6.90714 8.31165 9.84501 8.07009V4.80898H12.8923V8.07009C15.6426 8.28481 17.846 9.03634 19.5025 10.3247C21.1902 11.5862 22.1435 13.3308 22.3622 15.5586H16.6428C16.549 14.7265 16.1739 13.9884 15.5176 13.3442C14.8613 12.6732 13.9862 12.2169 12.8923 11.9754V20.6717C14.9863 21.1011 16.6896 21.5574 18.0023 22.0405C19.315 22.4968 20.4245 23.2349 21.3309 24.2548C22.2372 25.2479 22.6904 26.6302 22.6904 28.4017ZM5.4382 15.9209C5.4382 17.0214 5.81325 17.8803 6.56334 18.4976C7.34469 19.1149 8.43858 19.6115 9.84501 19.9872V11.8546C8.50109 11.9888 7.42283 12.4048 6.61022 13.1027C5.82887 13.8005 5.4382 14.7399 5.4382 15.9209ZM12.8923 32.8304C14.2675 32.6425 15.3457 32.1728 16.1271 31.4212C16.9084 30.6429 17.2991 29.7169 17.2991 28.6433C17.2991 27.5696 16.9084 26.7376 16.1271 26.1471C15.377 25.5298 14.2987 25.0332 12.8923 24.6575V32.8304Z" fill="#49AA26"/>
</svg>
