<svg width="198" height="38" viewBox="0 0 198 38" fill="none" xmlns="http://www.w3.org/2000/svg">
<path d="M45.068 31.868V35H26.78V9.8H44.564V12.932H30.38V20.672H43.016V23.732H30.38V31.868H45.068ZM58.4631 35.216C56.5191 35.216 54.7791 34.796 53.2431 33.956C51.7311 33.116 50.5431 31.964 49.6791 30.5C48.8151 29.012 48.3831 27.332 48.3831 25.46C48.3831 23.588 48.8151 21.92 49.6791 20.456C50.5431 18.968 51.7311 17.816 53.2431 17C54.7791 16.16 56.5191 15.74 58.4631 15.74C60.1911 15.74 61.7271 16.088 63.0711 16.784C64.4391 17.48 65.4951 18.488 66.2391 19.808L63.6111 21.5C63.0111 20.588 62.2671 19.904 61.3791 19.448C60.4911 18.992 59.5071 18.764 58.4271 18.764C57.1791 18.764 56.0511 19.04 55.0431 19.592C54.0591 20.144 53.2791 20.936 52.7031 21.968C52.1511 22.976 51.8751 24.14 51.8751 25.46C51.8751 26.804 52.1511 27.992 52.7031 29.024C53.2791 30.032 54.0591 30.812 55.0431 31.364C56.0511 31.916 57.1791 32.192 58.4271 32.192C59.5071 32.192 60.4911 31.964 61.3791 31.508C62.2671 31.052 63.0111 30.368 63.6111 29.456L66.2391 31.112C65.4951 32.432 64.4391 33.452 63.0711 34.172C61.7271 34.868 60.1911 35.216 58.4631 35.216ZM78.6043 35.216C76.7083 35.216 75.0043 34.796 73.4923 33.956C71.9803 33.116 70.7923 31.964 69.9283 30.5C69.0883 29.012 68.6683 27.332 68.6683 25.46C68.6683 23.588 69.0883 21.92 69.9283 20.456C70.7923 18.968 71.9803 17.816 73.4923 17C75.0043 16.16 76.7083 15.74 78.6043 15.74C80.5003 15.74 82.1923 16.16 83.6803 17C85.1923 17.816 86.3683 18.968 87.2083 20.456C88.0723 21.92 88.5043 23.588 88.5043 25.46C88.5043 27.332 88.0723 29.012 87.2083 30.5C86.3683 31.964 85.1923 33.116 83.6803 33.956C82.1923 34.796 80.5003 35.216 78.6043 35.216ZM78.6043 32.192C79.8283 32.192 80.9203 31.916 81.8803 31.364C82.8643 30.788 83.6323 29.996 84.1843 28.988C84.7363 27.956 85.0123 26.78 85.0123 25.46C85.0123 24.14 84.7363 22.976 84.1843 21.968C83.6323 20.936 82.8643 20.144 81.8803 19.592C80.9203 19.04 79.8283 18.764 78.6043 18.764C77.3803 18.764 76.2763 19.04 75.2923 19.592C74.3323 20.144 73.5643 20.936 72.9883 21.968C72.4363 22.976 72.1603 24.14 72.1603 25.46C72.1603 26.78 72.4363 27.956 72.9883 28.988C73.5643 29.996 74.3323 30.788 75.2923 31.364C76.2763 31.916 77.3803 32.192 78.6043 32.192ZM103.472 15.74C105.896 15.74 107.816 16.448 109.232 17.864C110.672 19.256 111.392 21.308 111.392 24.02V35H107.936V24.416C107.936 22.568 107.492 21.176 106.604 20.24C105.716 19.304 104.444 18.836 102.788 18.836C100.916 18.836 99.4398 19.388 98.3598 20.492C97.2798 21.572 96.7398 23.132 96.7398 25.172V35H93.2838V15.92H96.5958V18.8C97.2918 17.816 98.2278 17.06 99.4038 16.532C100.604 16.004 101.96 15.74 103.472 15.74ZM126.065 35.216C124.169 35.216 122.465 34.796 120.953 33.956C119.441 33.116 118.253 31.964 117.389 30.5C116.549 29.012 116.129 27.332 116.129 25.46C116.129 23.588 116.549 21.92 117.389 20.456C118.253 18.968 119.441 17.816 120.953 17C122.465 16.16 124.169 15.74 126.065 15.74C127.961 15.74 129.653 16.16 131.141 17C132.653 17.816 133.829 18.968 134.669 20.456C135.533 21.92 135.965 23.588 135.965 25.46C135.965 27.332 135.533 29.012 134.669 30.5C133.829 31.964 132.653 33.116 131.141 33.956C129.653 34.796 127.961 35.216 126.065 35.216ZM126.065 32.192C127.289 32.192 128.381 31.916 129.341 31.364C130.325 30.788 131.093 29.996 131.645 28.988C132.197 27.956 132.473 26.78 132.473 25.46C132.473 24.14 132.197 22.976 131.645 21.968C131.093 20.936 130.325 20.144 129.341 19.592C128.381 19.04 127.289 18.764 126.065 18.764C124.841 18.764 123.737 19.04 122.753 19.592C121.793 20.144 121.025 20.936 120.449 21.968C119.897 22.976 119.621 24.14 119.621 25.46C119.621 26.78 119.897 27.956 120.449 28.988C121.025 29.996 121.793 30.788 122.753 31.364C123.737 31.916 124.841 32.192 126.065 32.192Z" fill="white"/>
<path d="M164.272 35L164.2 21.644L157.72 32.516H154.552L148.108 22.004V35H141.52V9.8H147.388L156.244 24.344L164.884 9.8H170.752L170.824 35H164.272ZM196.1 29.492V35H175.868V9.8H195.632V15.308H182.924V19.556H194.12V24.884H182.924V29.492H196.1Z" fill="white"/>
<path d="M22.6904 26.4017C22.6904 27.7437 22.2997 29.0052 21.5184 30.1862C20.7683 31.3672 19.6431 32.3603 18.143 33.1655C16.674 33.9707 14.9238 34.4538 12.8923 34.6149V37.876H9.84501V34.6149C6.90714 34.3733 4.53183 33.5815 2.7191 32.2395C0.906366 30.8975 0 29.126 0 26.9251H5.71948C5.81324 27.9719 6.20392 28.8442 6.89151 29.542C7.5791 30.213 8.5636 30.6425 9.84501 30.8304V21.973C7.75099 21.5167 6.04765 21.0605 4.73498 20.6042C3.42231 20.121 2.29717 19.3695 1.35955 18.3496C0.453183 17.3296 0 15.9339 0 14.1625C0 11.9347 0.906366 10.0961 2.7191 8.64676C4.53183 7.17054 6.90714 6.31165 9.84501 6.07009V2.80898H12.8923V6.07009C15.6426 6.28481 17.846 7.03634 19.5025 8.32468C21.1902 9.58618 22.1435 11.3308 22.3622 13.5586H16.6428C16.549 12.7265 16.1739 11.9884 15.5176 11.3442C14.8613 10.6732 13.9862 10.2169 12.8923 9.97537V18.6717C14.9863 19.1011 16.6896 19.5574 18.0023 20.0405C19.315 20.4968 20.4245 21.2349 21.3309 22.2548C22.2372 23.2479 22.6904 24.6302 22.6904 26.4017ZM5.4382 13.9209C5.4382 15.0214 5.81325 15.8803 6.56334 16.4976C7.34469 17.1149 8.43858 17.6115 9.84501 17.9872V9.85458C8.50109 9.98878 7.42283 10.4048 6.61022 11.1027C5.82887 11.8005 5.4382 12.7399 5.4382 13.9209ZM12.8923 30.8304C14.2675 30.6425 15.3457 30.1728 16.1271 29.4212C16.9084 28.6429 17.2991 27.7169 17.2991 26.6433C17.2991 25.5696 16.9084 24.7376 16.1271 24.1471C15.377 23.5298 14.2987 23.0332 12.8923 22.6575V30.8304Z" fill="#49AA26"/>
</svg>
